<svg xmlns="http://www.w3.org/2000/svg" width="26" height="26" viewBox="0 0 26 26" fill="none">
  <path d="M20.5 3C20.5 3 16 5.5 12 10.5C9 14.5 7.5 19 7.5 19L10 16.5C10 16.5 12 20 9 22C9 22 14 21.5 17 17.5C17 17.5 18.5 15.5 18 13C18 13 22 8.5 22.5 4.5L20.5 3Z" fill="#3b82f6" opacity="0.15"/>
  <path d="M21 3.5C21 3.5 16.5 6 12.5 11C9.5 15 8 19.5 8 19.5" stroke="#3b82f6" stroke-width="1.5" stroke-linecap="round" stroke-linejoin="round"/>
  <path d="M8 19.5L10.5 17" stroke="#3b82f6" stroke-width="1.5" stroke-linecap="round"/>
  <path d="M10.5 17C10.5 17 12.5 20.5 9.5 22.5" stroke="#2563eb" stroke-width="1.3" stroke-linecap="round"/>
  <path d="M8 19.5C8 19.5 6.5 20.5 5.5 22C5.5 22 7 21 8 19.5Z" fill="#3b82f6" opacity="0.4"/>
</svg>
